HIERARCHY
ROOT Model_Hips
{
	OFFSET 0.000000 96.915077 0.000000
	CHANNELS 6 Xposition Yposition Zposition Xrotation Yrotation Zrotation
	JOINT Model_Spine
	{
		OFFSET 0.000000 11.137703 -1.289900
		CHANNELS 3 Xrotation Yrotation Zrotation
		JOINT Model_Spine1
		{
			OFFSET 0.000000 12.993942 -1.504922
			CHANNELS 3 Xrotation Yrotation Zrotation
			JOINT Model_Spine2
			{
				OFFSET 0.000000 14.850220 -1.719911
				CHANNELS 3 Xrotation Yrotation Zrotation
				JOINT Model_Neck
				{
					OFFSET 0.000000 16.706543 -1.934903
					CHANNELS 3 Xrotation Yrotation Zrotation
					JOINT Model_Head
					{
						OFFSET 0.000000 10.471298 2.002100
						CHANNELS 3 Xrotation Yrotation Zrotation
						JOINT Model_HeadTop_End
						{
							OFFSET 0.000000 20.842606 3.985100
							CHANNELS 3 Xrotation Yrotation Zrotation
							End Site
							{
								OFFSET 0.000000 21.220154 0.000000
							}
						}
					}
				}
				JOINT Model_LeftShoulder
				{
					OFFSET 7.008500 14.768600 -1.919946
					CHANNELS 3 Xrotation Yrotation Zrotation
					JOINT Model_LeftArm
					{
						OFFSET 14.126271 -3.718048 0.029937
						CHANNELS 3 Xrotation Yrotation Zrotation
						JOINT Model_LeftForeArm
						{
							OFFSET 28.282801 0.000000 0.000000
							CHANNELS 3 Xrotation Yrotation Zrotation
							JOINT Model_LeftHand
							{
								OFFSET 26.204689 0.000000 0.000000
								CHANNELS 3 Xrotation Yrotation Zrotation
								End Site
								{
									OFFSET 26.204704 0.000000 0.000000
								}
							}
						}
					}
				}
				JOINT Model_RightShoulder
				{
					OFFSET -7.008500 14.768555 -1.949840
					CHANNELS 3 Xrotation Yrotation Zrotation
					JOINT Model_RightArm
					{
						OFFSET -14.126281 -3.718018 -0.029932
						CHANNELS 3 Xrotation Yrotation Zrotation
						JOINT Model_RightForeArm
						{
							OFFSET -28.283798 0.000000 -0.000001
							CHANNELS 3 Xrotation Yrotation Zrotation
							JOINT Model_RightHand
							{
								OFFSET -26.204193 0.000000 -0.000001
								CHANNELS 3 Xrotation Yrotation Zrotation
								End Site
								{
									OFFSET -26.204208 0.000000 -0.000001
								}
							}
						}
					}
				}
			}
		}
	}
	JOINT Model_LeftUpLeg
	{
		OFFSET 8.327700 -6.193199 -0.402800
		CHANNELS 3 Xrotation Yrotation Zrotation
		JOINT Model_LeftLeg
		{
			OFFSET 0.735802 -42.108742 -0.610721
			CHANNELS 3 Xrotation Yrotation Zrotation
			JOINT Model_LeftFoot
			{
				OFFSET -0.735806 -36.833748 -0.172876
				CHANNELS 3 Xrotation Yrotation Zrotation
				JOINT Model_LeftToeBase
				{
					OFFSET -0.565857 -11.977769 16.297714
					CHANNELS 3 Xrotation Yrotation Zrotation
					JOINT Model_LeftToe_End
					{
						OFFSET -0.111712 -0.312793 7.857784
						CHANNELS 3 Xrotation Yrotation Zrotation
						End Site
						{
							OFFSET -0.111712 -0.312793 7.857784
						}
					}
				}
			}
		}
	}
	JOINT Model_RightUpLeg
	{
		OFFSET -8.327700 -6.193199 -0.516500
		CHANNELS 3 Xrotation Yrotation Zrotation
		JOINT Model_RightLeg
		{
			OFFSET -0.735785 -42.108738 -0.434061
			CHANNELS 3 Xrotation Yrotation Zrotation
			JOINT Model_RightFoot
			{
				OFFSET 0.735776 -36.833748 -0.021630
				CHANNELS 3 Xrotation Yrotation Zrotation
				JOINT Model_RightToeBase
				{
					OFFSET 0.565817 -11.977745 15.903093
					CHANNELS 3 Xrotation Yrotation Zrotation
					JOINT Model_RightToe_End
					{
						OFFSET 0.111702 -0.312791 7.811342
						CHANNELS 3 Xrotation Yrotation Zrotation
						End Site
						{
							OFFSET 0.111702 -0.312791 7.811342
						}
					}
				}
			}
		}
	}
}
MOTION
Frames: 7
Frame Time: 0.016667
-0.285049 90.422264 1.833879 5.443178 -2.896838 2.950144 4.930882 -1.352691 -1.320018 9.857124 -2.800249 -1.722117 9.857124 -2.800248 -1.722118 -2.495272 1.054333 0.099083 -2.495287 1.054333 0.099084 0.000001 0.000000 -0.000000 0.776476 -6.054067 -9.529317 5.506827 10.523503 -55.529967 -70.896107 -86.710522 -75.613206 0.000000 -0.000001 -0.000001 1.084061 1.226619 9.109821 21.951103 -16.130156 69.744004 5.202246 103.989835 6.122922 -0.000001 0.000000 -0.000000 -16.957777 5.244607 -4.078397 49.663750 -0.055175 1.511008 -30.039493 -0.177282 1.252681 -10.243097 -12.978172 1.678548 0.000000 0.000001 -0.000000 -36.795151 -6.255761 1.824599 100.669666 -14.448820 -3.969387 -18.249683 0.927981 -4.412930 -0.898573 2.887885 6.627548 0.000002 0.000000 -0.000000 
-0.052788 88.656235 9.541440 1.762542 0.429579 1.825121 5.377451 -1.554406 -0.590814 10.765030 -3.186811 -0.442960 10.765040 -3.186811 -0.442961 -2.270186 1.269735 -0.043813 -2.270151 1.269733 -0.043815 0.000003 -0.000000 -0.000000 0.777626 -6.374584 -8.994722 -0.308493 0.289836 -47.971400 -27.213946 -83.909817 -31.725829 0.000003 -0.000001 0.000000 1.093638 0.496608 9.661480 24.933641 -20.260581 69.005456 1.208285 95.525346 13.543218 -0.000001 -0.000001 0.000000 -16.155580 7.941777 -2.404135 58.899904 0.647410 1.470269 -31.348509 -0.330202 1.075370 -19.233487 -11.667720 0.169403 0.000000 0.000001 0.000000 -46.308829 -8.162943 2.204328 94.958201 -5.694573 -4.220805 -18.235050 1.057963 -4.466405 -1.374913 2.150640 7.009256 -0.000003 0.000000 -0.000000 
0.011311 86.713051 17.142836 -1.618421 3.596191 1.226491 5.800948 -1.686430 0.107444 11.628820 -3.498124 0.791217 11.628818 -3.498123 0.791217 -2.050550 1.508535 -0.252387 -2.050581 1.508537 -0.252389 0.000001 0.000000 -0.000000 0.782714 -6.602147 -8.451819 -5.529884 -9.072740 -41.127322 -7.234351 -79.915788 -11.307513 0.000003 0.000003 -0.000003 1.100359 -0.147236 10.057950 27.940661 -24.187728 68.427171 64.599034 87.601664 -46.677089 -0.000001 0.000001 -0.000000 -14.865879 10.472100 -0.609586 67.076467 0.998814 1.383339 -31.741498 -0.099308 0.873677 -28.079500 -9.905351 -0.452889 0.000000 0.000000 -0.000000 -54.248002 -10.065420 2.240570 90.063755 1.980598 -3.635235 -18.072722 1.387049 -4.960723 -2.146621 1.806951 7.135373 0.000002 -0.000001 -0.000001 
-0.063443 84.099609 25.024221 -4.240283 5.972205 1.265064 6.143938 -1.688741 0.683492 12.329590 -3.653530 1.816677 12.329584 -3.653529 1.816676 -1.851085 1.832736 -0.683053 -1.851071 1.832736 -0.683052 0.000002 -0.000000 -0.000000 0.800099 -6.506167 -7.882930 -9.018104 -15.289421 -36.769097 -1.624536 -74.557669 -4.657112 -0.000001 -0.000001 0.000001 1.094856 -0.487458 9.920974 30.957491 -27.423483 68.373049 47.651887 86.334786 -27.199917 0.000000 0.000000 -0.000000 -11.002613 12.534793 1.752687 72.988228 -0.181207 1.937381 -34.427258 1.540008 -0.740475 -35.527458 -6.978806 -0.464190 0.000000 -0.000000 -0.000000 -55.954013 -10.534859 3.099446 86.628341 6.234835 -4.654890 -17.542115 2.307604 -6.535690 -3.970152 2.886823 6.450239 0.000000 -0.000001 0.000001 
-0.333807 81.841888 30.251713 -6.914889 8.532698 1.687693 6.527622 -1.648673 1.269953 13.112100 -3.773659 2.846355 13.112105 -3.773662 2.846355 -1.665184 2.224898 -1.195687 -1.665194 2.224901 -1.195691 -0.000001 0.000000 0.000000 0.819346 -6.356025 -7.194885 -12.735323 -20.985507 -33.815324 0.181482 -69.017040 -0.590520 -0.000001 -0.000000 0.000001 1.083321 -0.788464 9.639242 34.148644 -30.531461 68.846647 46.386642 85.944147 -24.256252 0.000002 -0.000000 -0.000000 -9.589248 14.827635 5.040149 79.108986 -2.522211 2.756595 -34.402242 3.119508 -2.076833 -43.527573 -2.870791 0.397840 0.000001 0.000001 0.000000 -57.507618 -8.729515 5.109403 81.245209 8.978028 -5.457910 -13.220145 3.955806 -10.673467 -7.701446 4.625396 5.582317 0.000001 0.000000 0.000001 
-0.632926 79.527176 35.409122 -9.559870 11.447521 2.325491 6.926912 -1.605366 1.871904 13.927046 -3.879930 3.904829 13.927043 -3.879934 3.904827 -1.536954 2.648286 -1.719196 -1.536942 2.648285 -1.719193 0.000001 0.000000 -0.000000 0.838068 -6.111915 -6.410344 -16.936101 -25.901011 -32.530169 -0.987014 -64.386062 1.303560 0.000001 -0.000001 -0.000001 1.073652 -1.132347 9.431636 37.228769 -33.295755 69.630978 50.970939 86.148875 -28.319107 -0.000001 -0.000000 0.000000 -8.307144 16.746147 9.441505 84.764697 -6.244989 3.662839 -33.298856 3.907483 -2.715219 -47.185074 2.471449 1.454118 0.000000 0.000003 0.000001 -58.461802 -3.420405 7.707657 78.677871 11.508114 -4.906595 -10.656231 5.620217 -14.966855 -10.981165 5.516538 5.197534 0.000000 0.000001 0.000000 
-0.937753 77.145874 40.569275 -11.953660 14.878840 2.849244 7.257968 -1.613580 2.526058 14.605653 -3.990522 5.010090 14.605651 -3.990524 5.010090 -1.496591 3.067134 -2.174649 -1.496602 3.067136 -2.174654 0.000002 0.000001 -0.000000 0.851705 -5.692801 -5.551407 -21.819287 -29.666107 -32.893429 -4.335762 -61.525996 0.420559 -0.000002 0.000000 -0.000002 1.077074 -1.591426 9.450506 39.837253 -35.595913 70.278009 61.165034 86.663571 -38.994411 -0.000001 -0.000001 0.000000 -7.705744 17.666571 15.633062 89.950859 -11.523606 4.116071 -30.691455 3.557939 -2.182991 -48.918163 8.476510 1.776249 0.000000 -0.000001 -0.000000 -60.219223 3.966143 11.156010 81.562144 14.019158 -4.394224 -11.519484 5.302321 -13.987117 -11.345294 4.672555 5.390988 0.000001 -0.000001 -0.000000 
